<?xml version="1.0" encoding="utf-8"?>
<!-- Generator: Adobe Illustrator 27.0.1, SVG Export Plug-In . SVG Version: 6.00 Build 0)  -->
<svg version="1.1" id="Layer_1" xmlns="http://www.w3.org/2000/svg" xmlns:xlink="http://www.w3.org/1999/xlink" x="0px" y="0px"
	 viewBox="0 0 116.5 37.2" style="enable-background:new 0 0 116.5 37.2;" xml:space="preserve">
<style type="text/css">
	.st0{fill:#FFFFFF;}
	.st1{font-family:'Roboto-Medium';}
	.st2{font-size:11px;}
	.st3{fill:none;stroke:#D518A7;stroke-width:0.5;}
</style>
<text transform="matrix(1 0 0 1 21.2797 21.6023)" class="st0 st1 st2">Erickson Figueroa</text>
<g id="SVGRepo_iconCarrier">
	<circle class="st3" cx="10.2" cy="24.7" r="1.8"/>
	<circle class="st3" cx="4.3" cy="18.4" r="1.8"/>
	<circle class="st3" cx="10.2" cy="12.6" r="1.8"/>
	<circle class="st3" cx="16.1" cy="15.2" r="1.8"/>
	<circle class="st3" cx="16.1" cy="22.2" r="1.8"/>
	<circle class="st3" cx="10.2" cy="19.2" r="1.4"/>
	<line class="st3" x1="14.6" y1="23.2" x2="11.9" y2="24.2"/>
	<line class="st3" x1="8.9" y1="23.4" x2="5.6" y2="19.7"/>
	<line class="st3" x1="5.4" y1="17" x2="8.9" y2="13.8"/>
	<line class="st3" x1="15.2" y1="20.7" x2="11.3" y2="14"/>
	<line class="st3" x1="14.6" y1="14.4" x2="12" y2="13.2"/>
	<line class="st3" x1="15.5" y1="16.9" x2="11.1" y2="23.1"/>
	<line class="st3" x1="14.5" y1="21.5" x2="11.5" y2="19.8"/>
	<line class="st3" x1="8.7" y1="19" x2="6.1" y2="18.8"/>
	<line class="st3" x1="10.2" y1="17.7" x2="10.2" y2="14.4"/>
</g>
</svg>
